# xmcd
#
# Track frame offsets: 
#        150
#        34256
#        64838
#        88336
#        102551
#        149219
#        187735
#        203178
#        227306
#
# Disc length: 4375 seconds
#
# Revision: 0
# Processed by: cddbd v1.5.2PL0 Copyright (c) Steve Scherf et al.
# Submitted via: ExactAudioCopy v0.95a5
#
DISCID=81111509
DTITLE=管平湖 - 管平湖古琴曲集 CD1
DYEAR=2016
DGENRE=Folk
TTITLE0=流水
TTITLE1=长清
TTITLE2=鸥鹭忘机
TTITLE3=良宵引
TTITLE4=潇湘水云
TTITLE5=乌夜啼
TTITLE6=春晓吟
TTITLE7=白雪
TTITLE8=广陵散
EXTD=
EXTT0=
EXTT1=
EXTT2=
EXTT3=
EXTT4=
EXTT5=
EXTT6=
EXTT7=
EXTT8=
PLAYORDER=
